<svg xmlns="http://www.w3.org/2000/svg" xmlns:xlink="http://www.w3.org/1999/xlink" viewBox="0 0 95.481 71.36904281689407" height="71.36904281689407" width="95.481" data-background-color="#575c5f" preserveAspectRatio="xMidYMid meet" id="tight-bounds"><g><svg viewBox="0 0 95.481 71.36904281689407" height="71.36904281689407" width="95.481"><g><svg viewBox="0 0 95.481 71.36904281689407" height="71.36904281689407" width="95.481"><g id="textblocktransform"><svg viewBox="0 0 95.481 71.36904281689407" height="71.36904281689407" width="95.481" id="textblock"><g><svg viewBox="0 0 95.481 71.36904281689407" height="71.36904281689407" width="95.481"><g><svg viewBox="0 0 95.481 71.36904281689407" height="71.36904281689407" width="95.481"><g><svg xmlns="http://www.w3.org/2000/svg" xml:space="preserve" viewBox="1.100000023841858 13.399993896484375 97.80000305175781 73.10242462158203" x="0" y="0" height="71.36904281689407" width="95.481" class="icon-icon-0" data-fill-palette-color="accent" id="icon-0" fill="#000000"><path d="M1.1 79.9v-4.1h5.7V33.2c0-3.4 2.7-6.1 6.1-6.1h23.7c-0.5 2-0.8 4.1-0.8 6.3 0 0.7 0 1.3 0.1 2H15v40.4h21.2v0.4c0 1.3 1 2.3 2.3 2.3h11.6c1.3 0 2.3-1 2.3-2.3v-0.4h21.2V58.5H79c1 0 2-0.1 3-0.2v17.4h5.7v4.1c0 3.7-3 6.7-6.7 6.7H7.8c-3.7 0.1-6.7-2.9-6.7-6.6m39.7-46.5c0-11 9-20 20-20h18.1c11 0 20 9 20 20s-9 20-20 20H65.4l-9.2 9.2c-0.6 0.6-1.7 0.2-1.7-0.7v-9.5c-8-2.7-13.7-10.1-13.7-19m11.9 0.1c0 1.1 0.2 2.1 0.6 3.1q0.6 1.5 1.8 2.7t2.7 1.8c1 0.4 2 0.6 3.1 0.6s2.1-0.2 3.1-0.6q1.5-0.6 2.7-1.8l0.6-0.6-2.6-2.6-0.6 0.6c-0.9 0.9-2 1.3-3.2 1.3s-2.3-0.5-3.2-1.3c-0.9-0.9-1.3-2-1.3-3.2s0.5-2.3 1.3-3.2c0.9-0.9 2-1.3 3.2-1.3s2.3 0.5 3.2 1.3l3.2 3.2 5.8 5.8q1.2 1.2 2.7 1.8c1 0.4 2 0.6 3.1 0.6s2.1-0.2 3.1-0.6q1.5-0.6 2.7-1.8t1.8-2.7c0.4-1 0.6-2 0.6-3.1s-0.2-2.1-0.6-3.1q-0.6-1.5-1.8-2.7T82 25.9c-1-0.4-2-0.6-3.1-0.6s-2.1 0.2-3.1 0.6q-1.5 0.6-2.7 1.8l-0.7 0.7L75 31l0.7-0.7c0.9-0.9 2-1.3 3.2-1.3s2.3 0.5 3.2 1.3c0.9 0.9 1.3 2 1.3 3.2s-0.5 2.3-1.3 3.2c-0.9 0.9-2 1.3-3.2 1.3s-2.3-0.5-3.2-1.3l-1.3-1.3-7.7-7.7q-1.2-1.2-2.7-1.8c-1-0.4-2-0.6-3.1-0.6s-2.1 0.2-3.1 0.6q-1.5 0.6-2.7 1.8t-1.8 2.7c-0.4 1-0.6 2-0.6 3.1" fill="#000000" data-fill-palette-color="accent"/></svg></g></svg></g></svg></g></svg></g></svg></g></svg></g><defs/></svg>