<svg width="250" height="100" viewBox="0 0 250 100" fill="none" xmlns="http://www.w3.org/2000/svg">
<rect width="250" height="100" rx="50" fill="#FFC33A"/>
<path d="M29.4023 39.5254H36.2139C43.5088 39.5254 47.1562 43.0654 47.1562 50.1455C47.1562 57.3818 43.5088 61 36.2139 61H29.4023V39.5254ZM32.2441 58.4512H36.1553C39.2705 58.4512 41.3945 57.7285 42.5273 56.2832C43.6602 54.8281 44.2266 52.7822 44.2266 50.1455C44.2266 47.5771 43.6602 45.5898 42.5273 44.1836C41.4043 42.7773 39.2803 42.0742 36.1553 42.0742H32.2441V58.4512ZM60.5596 56.9131V53.4707H58.6699C54.666 53.4707 52.6641 54.5596 52.6641 56.7373C52.6641 57.5283 52.957 58.1387 53.543 58.5684C54.1289 58.9883 54.9199 59.1982 55.916 59.1982C56.8242 59.1982 57.7031 58.9932 58.5527 58.583C59.4023 58.1729 60.0713 57.6162 60.5596 56.9131ZM60.5596 59.4033C59.1533 60.7119 57.3418 61.3662 55.125 61.3662C53.582 61.3662 52.3125 60.9512 51.3164 60.1211C50.3203 59.2812 49.8223 58.2021 49.8223 56.8838C49.8223 53.251 52.9521 51.4346 59.2119 51.4346H60.5596C60.5596 50.3213 60.501 49.5156 60.3838 49.0176C60.2666 48.5098 59.9395 48.0898 59.4023 47.7578C58.8652 47.4258 58.0107 47.2598 56.8389 47.2598C54.3779 47.2598 53.1084 48.1387 53.0303 49.8965H50.2764C50.4814 46.7031 52.7178 45.1064 56.9854 45.1064C58.9775 45.1064 60.5303 45.502 61.6436 46.293C62.7568 47.084 63.3135 48.6367 63.3135 50.9512V61H60.5596V59.4033ZM78.1523 61H75.3838V39.5254H78.1523V61ZM92.083 56.9131V53.4707H90.1934C86.1895 53.4707 84.1875 54.5596 84.1875 56.7373C84.1875 57.5283 84.4805 58.1387 85.0664 58.5684C85.6523 58.9883 86.4434 59.1982 87.4395 59.1982C88.3477 59.1982 89.2266 58.9932 90.0762 58.583C90.9258 58.1729 91.5947 57.6162 92.083 56.9131ZM92.083 59.4033C90.6768 60.7119 88.8652 61.3662 86.6484 61.3662C85.1055 61.3662 83.8359 60.9512 82.8398 60.1211C81.8438 59.2812 81.3457 58.2021 81.3457 56.8838C81.3457 53.251 84.4756 51.4346 90.7354 51.4346H92.083C92.083 50.3213 92.0244 49.5156 91.9072 49.0176C91.79 48.5098 91.4629 48.0898 90.9258 47.7578C90.3887 47.4258 89.5342 47.2598 88.3623 47.2598C85.9014 47.2598 84.6318 48.1387 84.5537 49.8965H81.7998C82.0049 46.7031 84.2412 45.1064 88.5088 45.1064C90.501 45.1064 92.0537 45.502 93.167 46.293C94.2803 47.084 94.8369 48.6367 94.8369 50.9512V61H92.083V59.4033ZM104.49 61.3662C100.242 61.3662 98.0205 59.6963 97.8252 56.3564H100.594C100.613 58.251 101.902 59.1982 104.461 59.1982C105.604 59.1982 106.473 58.9639 107.068 58.4951C107.674 58.0166 107.977 57.4209 107.977 56.708C107.977 56.0049 107.684 55.5117 107.098 55.2285C106.512 54.9355 105.301 54.5596 103.465 54.1006C101.639 53.6416 100.301 53.1289 99.4512 52.5625C98.6113 51.9961 98.1914 51 98.1914 49.5742C98.1914 48.2852 98.7139 47.2207 99.7588 46.3809C100.813 45.5312 102.22 45.1064 103.978 45.1064C108.05 45.1064 110.13 46.5566 110.218 49.457H107.464C107.366 47.9922 106.268 47.2598 104.168 47.2598C103.24 47.2598 102.469 47.4355 101.854 47.7871C101.248 48.1387 100.945 48.6514 100.945 49.3252C100.945 49.9307 101.18 50.3701 101.648 50.6436C102.117 50.9072 103.289 51.2686 105.164 51.7275C107.049 52.1768 108.445 52.7041 109.354 53.3096C110.271 53.915 110.73 54.96 110.73 56.4443C110.73 57.8604 110.164 59.0371 109.031 59.9746C107.908 60.9023 106.395 61.3662 104.49 61.3662ZM131.663 61.3662C128.577 61.3662 126.072 60.3555 124.148 58.334C122.234 56.3125 121.277 53.6221 121.277 50.2627C121.277 46.8936 122.225 44.2031 124.119 42.1914C126.014 40.1699 128.499 39.1592 131.575 39.1592C134.163 39.1592 136.312 39.7842 138.021 41.0342C139.739 42.2744 140.701 43.9395 140.906 46.0293H137.962C137.845 44.6426 137.22 43.5586 136.087 42.7773C134.954 41.9863 133.46 41.5908 131.604 41.5908C129.388 41.5908 127.601 42.3477 126.243 43.8613C124.896 45.375 124.222 47.5088 124.222 50.2627C124.222 53.0068 124.905 55.1406 126.272 56.6641C127.64 58.1777 129.427 58.9346 131.634 58.9346C134.729 58.9346 137.029 57.9141 138.533 55.873V52.6064H132.864V50.043H141.287V61H139.28L138.533 58.7441C137.078 60.4922 134.788 61.3662 131.663 61.3662ZM153.328 47.9775C152.938 47.8604 152.376 47.8018 151.644 47.8018C150.237 47.8018 149.031 48.5391 148.025 50.0137V61H145.257V45.458H148.025V47.626C149.188 45.9463 150.535 45.1064 152.068 45.1064C152.459 45.1064 152.879 45.1455 153.328 45.2236V47.9775ZM165.091 56.9131V53.4707H163.201C159.197 53.4707 157.195 54.5596 157.195 56.7373C157.195 57.5283 157.488 58.1387 158.074 58.5684C158.66 58.9883 159.451 59.1982 160.447 59.1982C161.355 59.1982 162.234 58.9932 163.084 58.583C163.934 58.1729 164.603 57.6162 165.091 56.9131ZM165.091 59.4033C163.685 60.7119 161.873 61.3662 159.656 61.3662C158.113 61.3662 156.844 60.9512 155.848 60.1211C154.852 59.2812 154.354 58.2021 154.354 56.8838C154.354 53.251 157.483 51.4346 163.743 51.4346H165.091C165.091 50.3213 165.032 49.5156 164.915 49.0176C164.798 48.5098 164.471 48.0898 163.934 47.7578C163.396 47.4258 162.542 47.2598 161.37 47.2598C158.909 47.2598 157.64 48.1387 157.562 49.8965H154.808C155.013 46.7031 157.249 45.1064 161.517 45.1064C163.509 45.1064 165.062 45.502 166.175 46.293C167.288 47.084 167.845 48.6367 167.845 50.9512V61H165.091V59.4033ZM178.245 61.3662C176.038 61.3662 174.271 60.6582 172.942 59.2422C171.624 57.8164 170.965 55.8145 170.965 53.2363C170.965 50.6484 171.624 48.6465 172.942 47.2305C174.271 45.8145 176.038 45.1064 178.245 45.1064C179.944 45.1064 181.36 45.5361 182.493 46.3955C183.636 47.2549 184.31 48.4951 184.515 50.1162H181.673C181.634 49.1885 181.282 48.4805 180.618 47.9922C179.964 47.5039 179.173 47.2598 178.245 47.2598C176.927 47.2598 175.857 47.7627 175.037 48.7686C174.217 49.7646 173.807 51.2539 173.807 53.2363C173.807 55.209 174.217 56.6982 175.037 57.7041C175.857 58.7002 176.927 59.1982 178.245 59.1982C179.173 59.1982 179.964 58.9541 180.618 58.4658C181.282 57.9775 181.634 57.2744 181.673 56.3564H184.515C184.31 57.9775 183.636 59.2178 182.493 60.0771C181.36 60.9365 179.944 61.3662 178.245 61.3662ZM189.715 61H186.946V45.458H189.715V61ZM189.715 42.5137H186.946V39.5254H189.715V42.5137ZM203.646 56.9131V53.4707H201.756C197.752 53.4707 195.75 54.5596 195.75 56.7373C195.75 57.5283 196.043 58.1387 196.629 58.5684C197.215 58.9883 198.006 59.1982 199.002 59.1982C199.91 59.1982 200.789 58.9932 201.639 58.583C202.488 58.1729 203.157 57.6162 203.646 56.9131ZM203.646 59.4033C202.239 60.7119 200.428 61.3662 198.211 61.3662C196.668 61.3662 195.398 60.9512 194.402 60.1211C193.406 59.2812 192.908 58.2021 192.908 56.8838C192.908 53.251 196.038 51.4346 202.298 51.4346H203.646C203.646 50.3213 203.587 49.5156 203.47 49.0176C203.353 48.5098 203.025 48.0898 202.488 47.7578C201.951 47.4258 201.097 47.2598 199.925 47.2598C197.464 47.2598 196.194 48.1387 196.116 49.8965H193.362C193.567 46.7031 195.804 45.1064 200.071 45.1064C202.063 45.1064 203.616 45.502 204.729 46.293C205.843 47.084 206.399 48.6367 206.399 50.9512V61H203.646V59.4033ZM216.053 61.3662C211.805 61.3662 209.583 59.6963 209.388 56.3564H212.156C212.176 58.251 213.465 59.1982 216.023 59.1982C217.166 59.1982 218.035 58.9639 218.631 58.4951C219.236 58.0166 219.539 57.4209 219.539 56.708C219.539 56.0049 219.246 55.5117 218.66 55.2285C218.074 54.9355 216.863 54.5596 215.027 54.1006C213.201 53.6416 211.863 53.1289 211.014 52.5625C210.174 51.9961 209.754 51 209.754 49.5742C209.754 48.2852 210.276 47.2207 211.321 46.3809C212.376 45.5312 213.782 45.1064 215.54 45.1064C219.612 45.1064 221.692 46.5566 221.78 49.457H219.026C218.929 47.9922 217.83 47.2598 215.73 47.2598C214.803 47.2598 214.031 47.4355 213.416 47.7871C212.811 48.1387 212.508 48.6514 212.508 49.3252C212.508 49.9307 212.742 50.3701 213.211 50.6436C213.68 50.9072 214.852 51.2686 216.727 51.7275C218.611 52.1768 220.008 52.7041 220.916 53.3096C221.834 53.915 222.293 54.96 222.293 56.4443C222.293 57.8604 221.727 59.0371 220.594 59.9746C219.471 60.9023 217.957 61.3662 216.053 61.3662Z" fill="#333333"/>
</svg>
