<svg viewBox="0 0 256 256" fill="none" xmlns="http://www.w3.org/2000/svg">
<path d="M131.048 46L192 106.952H131.548C131.271 106.952 131.048 106.729 131.048 106.452V46Z" fill="white"/>
<path fill-rule="evenodd" clip-rule="evenodd" d="M65 210.571C64.4477 210.571 64 210.124 64 209.571V47C64 46.4477 64.4477 46 65 46H121.905V112.048C121.905 112.6 122.352 113.048 122.905 113.048H191C191.552 113.048 192 113.495 192 114.048V209.571C192 210.124 191.552 210.571 191 210.571H65ZM82.2857 143.524H167.619V149.619H82.2857V143.524ZM167.619 170.952H82.2857V177.048H167.619V170.952Z" fill="white"/>
</svg>
