<svg viewBox="0 0 256 256" fill="none" xmlns="http://www.w3.org/2000/svg">
<path d="M192 167.297V88.3063L128.288 122.036V201.027L192 167.297Z" fill="white"/>
<path fill-rule="evenodd" clip-rule="evenodd" d="M128.288 54L64 88.3063L128.288 122.036L192 88.3063L128.288 54ZM156.182 85.9929C155.869 85.819 155.487 85.8258 155.18 86.0107L119.321 107.636C118.678 108.023 118.675 108.954 119.315 109.345L127.796 114.528C128.101 114.714 128.481 114.724 128.795 114.554L167.048 93.7876C167.742 93.4113 167.747 92.4178 167.057 92.0346L156.182 85.9929ZM138.042 77.6822C138.701 77.2804 138.676 76.3139 137.995 75.9477L128.766 70.9778C128.468 70.8174 128.109 70.8185 127.812 70.9806L89.268 92.0297C88.5694 92.4112 88.5749 93.4164 89.2777 93.7902L100.686 99.8585C100.998 100.024 101.374 100.013 101.676 99.8297L138.042 77.6822Z" fill="white"/>
<path fill-rule="evenodd" clip-rule="evenodd" d="M64 167.297V88.3063L128.288 122.036V201.027L64 167.297ZM119.928 128.708C119.928 128.329 119.714 127.983 119.375 127.814L111.744 123.998C111.041 123.647 110.18 124.211 110.132 124.996C109.934 128.237 108.493 134.608 100.12 133.578C100.066 133.571 100.008 133.559 99.9558 133.543C92.493 131.212 93.9467 118.689 94.4364 115.545C94.5033 115.116 94.3011 114.686 93.9212 114.476L79.8987 106.714C79.2322 106.345 78.4144 106.827 78.4144 107.588V158.046C78.4144 158.417 78.6197 158.757 78.9477 158.93L118.461 179.784C119.127 180.136 119.928 179.653 119.928 178.9V128.708Z" fill="white"/>
<path d="M110.132 124.996C110.18 124.211 111.041 123.647 111.744 123.998L119.375 127.814C119.714 127.983 119.928 128.329 119.928 128.708V178.9C119.928 179.653 119.127 180.136 118.461 179.784L78.9477 158.93C78.6197 158.757 78.4144 158.417 78.4144 158.046V107.588C78.4144 106.827 79.2322 106.345 79.8987 106.714L93.9212 114.476C94.3011 114.686 94.5033 115.116 94.4364 115.545C93.9467 118.689 92.493 131.212 99.9558 133.543C100.008 133.559 100.066 133.571 100.12 133.578C108.493 134.608 109.934 128.237 110.132 124.996Z" fill="#000"/>
<path d="M127.812 70.9806C128.109 70.8185 128.468 70.8174 128.766 70.9778L137.995 75.9477C138.676 76.3139 138.701 77.2804 138.042 77.6822L101.676 99.8297C101.374 100.013 100.998 100.024 100.686 99.8585L89.2777 93.7902C88.5749 93.4164 88.5694 92.4112 89.268 92.0297L127.812 70.9806Z" fill="#000"/>
</svg>
